<svg width="24" height="24" viewBox="0 0 24 24" fill="none" xmlns="http://www.w3.org/2000/svg">
<g clip-path="url(#clip0_2345_136004)">
<path d="M1.61328 7.73828C2.23437 7.73828 2.5625 7.38672 2.5625 6.77734V4.01172C2.5625 2.79297 3.20703 2.17188 4.3789 2.17188H7.21484C7.83594 2.17188 8.17578 1.83203 8.17578 1.22266C8.17578 0.613281 7.83594 0.285156 7.21484 0.285156H4.35547C1.90625 0.285156 0.675781 1.49219 0.675781 3.90625V6.77734C0.675781 7.38672 1.01563 7.73828 1.61328 7.73828ZM22.6719 7.73828C23.293 7.73828 23.6211 7.38672 23.6211 6.77734V3.90625C23.6211 1.49219 22.3906 0.285156 19.9414 0.285156H17.0703C16.461 0.285156 16.1211 0.613281 16.1211 1.22266C16.1211 1.83203 16.461 2.17188 17.0703 2.17188H19.9063C21.0664 2.17188 21.7344 2.79297 21.7344 4.01172V6.77734C21.7344 7.38672 22.0742 7.73828 22.6719 7.73828ZM4.35547 23.2187H7.21484C7.83594 23.2187 8.17578 22.8789 8.17578 22.2812C8.17578 21.6719 7.83594 21.332 7.21484 21.332H4.3789C3.20703 21.332 2.5625 20.7109 2.5625 19.4922V16.7265C2.5625 16.1055 2.22266 15.7656 1.61328 15.7656C1.00391 15.7656 0.675781 16.1055 0.675781 16.7265V19.5859C0.675781 22.0117 1.90625 23.2187 4.35547 23.2187ZM17.0703 23.2187H19.9414C22.3906 23.2187 23.6211 22 23.6211 19.5859V16.7265C23.6211 16.1055 23.2813 15.7656 22.6719 15.7656C22.0625 15.7656 21.7344 16.1055 21.7344 16.7265V19.4922C21.7344 20.7109 21.0664 21.332 19.9063 21.332H17.0703C16.461 21.332 16.1211 21.6719 16.1211 22.2812C16.1211 22.8789 16.461 23.2187 17.0703 23.2187Z" fill="black" fill-opacity="0.85"/>
<path d="M7.68359 10.9609C8.23437 10.9609 8.63281 10.5742 8.63281 10.0117V8.41797C8.63281 7.85547 8.23437 7.46875 7.68359 7.46875C7.13281 7.46875 6.74609 7.85547 6.74609 8.41797V10.0117C6.74609 10.5742 7.13281 10.9609 7.68359 10.9609ZM11.211 13.7265C11.2344 13.7265 11.2696 13.7265 11.3047 13.7265C12.4883 13.7265 13.1328 13.082 13.1328 11.8984V8.20703C13.1328 7.75 12.8281 7.45703 12.3828 7.45703C11.9141 7.45703 11.6094 7.75 11.6094 8.20703V12.0039C11.6094 12.1211 11.5391 12.1797 11.4336 12.1797H11.0235C10.6016 12.1797 10.2734 12.5078 10.2734 12.9297C10.2734 13.4336 10.6133 13.7265 11.211 13.7265ZM16.5781 10.9609C17.1172 10.9609 17.5039 10.5742 17.5039 10.0117V8.41797C17.5039 7.85547 17.1172 7.46875 16.5781 7.46875C16.0156 7.46875 15.6289 7.85547 15.6289 8.41797V10.0117C15.6289 10.5742 16.0156 10.9609 16.5781 10.9609ZM12.0781 17.664C13.4961 17.664 14.9258 17.0547 15.9453 16.0351C16.086 15.9062 16.1563 15.707 16.1563 15.4726C16.1563 15.0273 15.8281 14.7109 15.3946 14.7109C15.1719 14.7109 15.0078 14.7929 14.7852 15.0273C14.1406 15.6953 13.1211 16.1523 12.0781 16.1523C11.0938 16.1523 10.0625 15.7187 9.38281 15.0273C9.19531 14.8515 9.04297 14.7109 8.76172 14.7109C8.32812 14.7109 8 15.0273 8 15.4726C8 15.6719 8.07031 15.8594 8.22266 16.0234C9.17187 17.1015 10.6602 17.664 12.0781 17.664Z" fill="black" fill-opacity="0.85"/>
</g>
<defs>
<clipPath id="clip0_2345_136004">
<rect width="23.2969" height="22.957" fill="white" transform="translate(0.675781 0.261719)"/>
</clipPath>
</defs>
</svg>
